<?xml version="1.0" encoding="UTF-8"?>
<svg width="18px" height="17px" viewBox="0 0 18 17" version="1.1" xmlns="http://www.w3.org/2000/svg" xmlns:xlink="http://www.w3.org/1999/xlink">
    <!-- Generator: Sketch 60.1 (88133) - https://sketch.com -->
    <title>wp-admin-menu</title>
    <desc>Created with Sketch.</desc>
    <g id="Page-1" stroke="none" stroke-width="1" fill="none" fill-rule="evenodd">
        <g id="wp-admin-menu" transform="translate(-1.000000, -1.000000)" fill-rule="nonzero">
            <path d="M5.70865063,0 L14.2913494,0 C16.2763716,0 16.9961886,0.206682025 17.721883,0.59478766 C18.4475775,0.982893297 19.0171067,1.55242254 19.4052123,2.27811699 C19.793318,3.00381143 20,3.72362845 20,5.70865063 L20,14.2913494 C20,16.2763716 19.793318,16.9961886 19.4052123,17.721883 C19.0171067,18.4475775 18.4475775,19.0171067 17.721883,19.4052123 C16.9961886,19.793318 16.2763716,20 14.2913494,20 L5.70865063,20 C3.72362845,20 3.00381143,19.793318 2.27811699,19.4052123 C1.55242254,19.0171067 0.982893297,18.4475775 0.59478766,17.721883 C0.206682025,16.9961886 0,16.2763716 0,14.2913494 L0,5.70865063 C0,3.72362845 0.206682025,3.00381143 0.59478766,2.27811699 C0.982893297,1.55242254 1.55242254,0.982893297 2.27811699,0.59478766 C3.00381143,0.206682025 3.72362845,0 5.70865063,0 Z" id="Path" fill-opacity="0" fill="#000000"></path>
            <g id="CannaLogo" transform="translate(1.000000, 1.000000)" fill="#FFFFFF">
                <path d="M13.9558274,12.5734571 C15.2563153,12.0820747 16.6398853,11.903866 18,12.0489434 C17.0352337,13.0950198 15.8507549,13.9038255 14.5379612,14.4077993 C14.0261935,14.6044231 13.49772,14.7541043 12.9668599,14.8526327 C12.3144344,14.9742191 11.6564155,15.0203354 11,14.9918472 C12.0827518,14.3306372 13.0729498,13.5201789 13.9558274,12.5734571 Z" id="Path"></path>
                <path d="M17,3 C16.6512412,5.36219574 15.6889912,7.6293526 14.1913635,9.60116632 C13.6848197,10.2680443 13.1191868,10.8988759 12.5095922,11.4757015 C11.4652868,12.4676724 10.2890508,13.3133029 9,14 C9.89390087,12.2636917 10.4610007,10.3923259 10.6773706,8.471856 C10.8537212,8.20617815 11.0402943,7.94366969 11.2322767,7.69104969 C12.7299044,5.71927822 14.711568,4.10995605 17,3 Z" id="Path"></path>
                <path d="M15,16.9475935 C14.2218603,17.0492025 13.4243624,17.0030611 12.65766,16.8091343 C12.067254,16.659882 11.5083836,16.4257866 11,16.1191085 C11.1380242,16.1246971 11.2764926,16.1276661 11.414924,16.1276661 C11.9572121,16.1276661 12.4999075,16.0848779 13.0390495,16 C13.7525262,16.1979786 14.4182552,16.5206892 15,16.9475935 Z" id="Path"></path>
                <path d="M8.5,0 C9.48304432,2.30309039 10,4.87842711 10,7.49884623 C10,10.1206328 9.48304432,12.6969096 8.5,15 C7.51695568,12.6969096 7,10.1206755 7,7.49884623 C7,4.87842711 7.51695568,2.30304766 8.5,0 Z" id="Path"></path>
                <path d="M6.5847866,16.127632 C6.72319107,16.127632 6.86159553,16.1246638 7,16.1190766 C6.49130809,16.4260568 5.93217628,16.6600895 5.34188493,16.8093019 C4.57492437,17.0031418 3.77761844,17.0493059 3,16.94734 C3.58203887,16.5201657 4.24841566,16.1975764 4.96175372,16 C5.50038395,16.0848203 6.04256679,16.127632 6.5847866,16.127632 Z" id="Path"></path>
                <path d="M7,14.99179 C6.34354258,15.0203211 5.68630197,14.9745926 5.03461799,14.8529909 C5.03223127,14.852558 5.02984455,14.8521644 5.02708491,14.8517315 C4.49898778,14.7531909 3.97245693,14.6039238 3.46226013,14.4081017 C2.14934525,13.9040645 0.964790682,13.0951966 0,12.0489495 C1.35938116,11.9038539 2.74225651,12.082085 4.04443119,12.5735291 C4.92770079,13.5211962 5.91796213,14.3313234 7,14.99179 Z" id="Path"></path>
                <path d="M6.53194367,8.47141217 C6.72125643,10.392312 7.21744038,12.2632624 8,14 C6.87258634,13.3133003 5.8430377,12.4676665 4.92844046,11.4748043 C4.395517,10.8984414 3.90061653,10.2676074 3.45741609,9.60026198 C2.14706691,7.62890554 1.30514651,5.36173996 1,3 C3.00226327,4.10996031 4.73656074,5.71928869 6.04646871,7.69060289 C6.21440358,7.94322384 6.37724463,8.20573331 6.53194367,8.47141217 Z" id="Path"></path>
            </g>
        </g>
    </g>
</svg>