<?xml version="1.0" encoding="UTF-8"?>
<svg width="1024px" height="192px" viewBox="0 0 1024 192" version="1.1" xmlns="http://www.w3.org/2000/svg" xmlns:xlink="http://www.w3.org/1999/xlink">
    <!-- Generator: Sketch 60.1 (88133) - https://sketch.com -->
    <title>dashboard</title>
    <desc>Created with Sketch.</desc>
    <g id="content" stroke="none" stroke-width="1" fill="none" fill-rule="evenodd">
        <g id="dashboard" transform="translate(0.000000, -5.000000)">
            <rect id="invisible" fill-opacity="0.01" fill="#FFFFFF" x="0" y="5" width="1024" height="192"></rect>
            <g id="biker" transform="translate(472.000000, 21.000000)" fill-rule="nonzero">
                <path d="M80.9391167,130.518175 C80.9391167,110.902079 62.8340392,95 40.5000249,95 C18.1660106,95 0.0604663247,110.902079 0.0604663247,130.518175 C0.0604663247,132.04355 -0.0347547695,149.592829 0.0137893178,151.277836 C0.156154189,156.19843 1.53032527,161 10.1086256,161 L70.8676189,161 C79.470658,161 80.8448291,156.207298 80.9862605,151.282504 C81.0348045,149.597963 80.9391167,132.047284 80.9391167,130.518175" id="Fill-2" fill="#E6E6C9"></path>
                <path d="M28,161 L54,161 L54,144.020051 C49.8447489,144.020051 43.9979543,139.948385 41.2673607,137 C37.3789954,139.948385 32.5114155,144.020051 28,144.020051 L28,161" id="Fill-3" fill="#FF6600"></path>
                <path d="M30,161 L51,161 L51,145.023622 C47.6440542,145.023622 42.9217053,141.702788 40.7158466,139 C37.5757474,141.702788 33.6440542,145.023622 30,145.023622 L30,161" id="Fill-4" fill="#666666"></path>
                <polygon id="Fill-5" fill="#FF6600" points="30 149 53 149 53 147 30 147"></polygon>
                <path d="M25.5531874,97 C10.583469,102.256968 0,115.175232 0,130.279078 C0,131.816418 0.547404688,149.209338 0.596021329,150.907562 C0.738131513,155.866753 1.47205582,161 10.0631774,161 L32.8526957,161 C31.8663389,139.735976 29.432702,118.402799 25.5531874,97 Z M55.4468126,97 C70.416531,102.256968 81,115.175232 81,130.279078 C81,131.816418 80.6573462,149.180172 80.6087295,150.877925 C80.4661519,155.837587 79.5279442,161 70.9372901,161 L48.1473043,161 C49.1336611,139.735976 51.567298,118.402799 55.4468126,97 L55.4468126,97 Z" id="Fill-6" fill="#2A2A2A"></path>
                <path d="M80.9391167,130.315913 C80.9391167,121.873972 77.6278498,114.117083 72.0938239,108.00047 C70.1128517,114.022172 69.0056731,120.732216 69.0056731,127.80781 C69.0056731,128.80297 68.9870023,145.732899 68.9720656,161 L70.8676189,161 C79.470658,161 80.8448291,156.175496 80.9862605,151.218023 C81.0348045,149.522305 80.9391167,131.855168 80.9391167,130.315913 Z M8.90575916,108 C3.3717332,114.116613 0.0604663247,121.873972 0.0604663247,130.315913 C0.0604663247,131.85141 -0.0347547695,149.517137 0.0137893178,151.213324 C0.156154189,156.166569 1.53032527,161 10.1086256,161 L12.0279842,161 C12.0130475,145.732899 11.9943767,128.80297 11.9943767,127.80781 C11.9943767,120.732216 10.8871981,114.022172 8.90575916,108 L8.90575916,108 Z" id="Fill-7" fill="#FAB385"></path>
                <path d="M7.71166175,125.313003 C8.19545015,121.201126 7.55335647,121.605045 6.14542017,124.71507 C4.81360115,127.656113 3.01947468,130.478726 0.0415609721,131.940341 C0.0224149064,132.722662 0.0177451342,133.383181 0,138.297117 C2.48571972,137.262047 6.92387119,132.005816 7.71166175,125.313003 Z M80.9561041,130.857128 C80.9561041,126.624413 80.1622429,122.560198 78.703873,118.778581 C77.9244881,119.303819 76.8789261,119.903196 76.1938705,120.341777 C75.2146193,120.968597 75.465386,120.80443 75.5204893,121.873681 C75.5746587,122.922713 75.8394348,124.215347 75.5783945,124.402141 C74.3077495,125.284117 72.1988804,123.88942 71.9957453,125.479577 C71.8902085,126.307633 71.7786009,130.168205 72.2768656,130.858091 C72.575731,131.271156 72.9418412,131.363109 73.3308332,131.364553 C73.8361025,131.365998 74.4525125,131.441582 74.9419046,131.643782 C75.3178212,131.799283 75.1338322,131.952377 75.3210901,132.457395 C75.5713899,133.130431 75.8978069,134.324373 76.0098815,134.965635 C76.2597143,136.388255 78.1953348,140.272416 79.4935315,140.948341 C80.0646446,141.245382 80.5017353,140.207423 81,139.216645 C80.9822549,134.063439 80.9561041,131.680852 80.9561041,130.857128 Z M5.16756988,113 C6.40879532,115.021998 6.68898165,118.314003 5.69898995,121.692183 C4.63334794,125.326002 2.39652707,128.037404 0.103201965,128.819243 C0.218545337,127.140023 0.384322249,125.501723 0.695796051,123.840315 C1.49432709,119.585935 2.9821165,116.53657 5.16756988,113 L5.16756988,113 Z" id="Fill-8" fill="#93778C"></path>
                <path d="M14,69 C9.47004225,67.9422504 5.21485949,61.5847487 4.14448165,53.898985 C3.41015266,48.6285767 5.5394195,47.1925682 9.06745381,47 C9.53801795,55.0369714 11.2833657,62.523748 14,69" id="Fill-9" fill="#F49A6A"></path>
                <path d="M52.9822868,113.019622 C49.8406949,114.868508 45.6304076,116 41.0018167,116 C36.3718633,116 32.1602135,114.868038 29.0186216,113.017744 C28.2819348,107.906311 27.4639491,102.791122 26.566027,97.671707 L25,58 C35.6669695,58 46.3334847,58 57,58 L55.4235267,97.7360284 C54.5296923,102.834316 53.7157943,107.929316 52.9822868,113.019622" id="Fill-10" fill="#F49A6A"></path>
                <path d="M67,69 C71.5299578,67.9422504 75.7851405,61.5847487 76.8555184,53.898985 C77.5898473,48.6285767 75.4605805,47.1925682 71.9325462,47 C71.4619821,55.0369714 69.7166343,62.523748 67,69" id="Fill-11" fill="#F49A6A"></path>
                <path d="M71.8019554,27.5025484 C72.1575161,31.9438255 73,36.5140458 73,41.2947955 C73,69.2984725 58.6735955,92 41,92 C23.3273329,92 9,69.2984725 9,41.2947955 C9,33.8479667 10.0137658,26.7762458 11.8333454,20.4064455 C21.3007296,11.472783 70.1866143,7.29830147 71.8019554,27.5025484" id="Fill-12" fill="#FAB385"></path>
                <path d="M69.1680862,64.1397353 C68.2318545,66.9078717 67.0962532,68.901079 65.7982203,71.665024 C64.2146295,75.0371767 62.9805274,75.6789149 59.9000078,74.0629268 C47.6428072,66.2535595 38.4476573,65.430663 25.7860349,72.4162023 C24.6594313,72.9703885 23.5172002,73.4989609 22.4081184,74.0820206 C19.5255476,75.597417 18.7171776,75.0851441 17.2121981,71.9975357 C16.0443947,69.6019614 14.9831426,68.0092584 14.0876372,65.5610597 C10.5832797,55.9782969 11.6142238,45.8352938 11.2192733,35.7174387 C11.1363999,33.588712 8.06677222,36.8798324 8,36.8323307 C8.06156304,37.4102677 8.4825595,44.2034718 9.1398633,49.8538417 C10.7225069,63.4584124 13.3469865,82.5103067 20.9812766,94.1933884 C22.841901,97.0402285 24.5017352,98.320445 26.0990592,99.610907 C31.7088726,104.144056 51.5681611,103.995963 57.3162545,99.9653067 C69.7197857,91.2673788 73.1554767,51.4963749 75,37.3562462 C74.7651133,37.4549751 69.6695881,33.9114439 70.9406281,36.2678992 C73.3467957,40.7288646 71.2588616,57.9579987 69.1680862,64.1397353 Z M50.6949131,82.6136927 C47.813763,82.5666567 45.0926768,81.8648428 44.5523427,79.9973753 C44.1805967,78.7143646 43.4262127,78.7893427 42.0145249,78.7041192 C41.8061577,78.7166931 41.6143652,78.7260072 41.4372531,78.7357869 C41.2596674,78.7260072 41.0678748,78.7166931 40.8595076,78.7041192 C39.4482934,78.7893427 38.6934359,78.7143646 38.3221634,79.9973753 C37.7297376,82.043207 34.5208827,82.6886708 31.3508598,82.609967 C29.0673447,82.553617 27.7044338,81.789399 28.2750758,79.5749831 C28.7183297,77.8532805 29.5409066,77.1640406 31.3342852,77.0550662 C34.0454266,76.8902074 37.3632007,76.2074874 41.4552484,74.739127 C44.6678918,75.891741 47.4031849,76.56049 49.7421067,76.8739078 C52.3646921,77.225979 53.6840353,77.4928266 54.3053484,79.5749831 C55.2141136,82.6220753 53.6428354,82.6621257 50.6949131,82.6136927 L50.6949131,82.6136927 Z" id="Fill-13" fill="#7D5D48"></path>
                <path d="M10.8513666,44.8597223 C9.92011256,45.4402022 9.08722713,46.2360443 8.05714041,46.6006864 C7.0284457,46.9648531 3.63890359,46.9715089 2.55081649,46.9990828 C-1.60154659,47.1036738 3.89828128,38.2281802 3.90663334,38.1017202 C5.39793907,16.4086048 10.5200685,-0.0449791481 40.499768,0 C70.4799315,-0.0449791481 75.6025249,16.4086048 77.0933667,38.1017202 C77.1017187,38.2281802 82.6015466,47.1036738 78.4491835,46.9990828 C77.3610964,46.9715089 73.9720183,46.9648531 72.9428596,46.6006864 C71.9127729,46.2360443 71.0798874,45.4402022 70.1486334,44.8597223 C62.8187776,41.7543217 18.1812224,41.7543217 10.8513666,44.8597223" id="Fill-14" fill="#3F3F3F"></path>
                <path d="M10.9766727,30.1353349 C8.51600595,29.5418918 7.90026186,29.0713081 8.01250928,27.2796448 C8.24347106,23.6065536 9.33407257,21.2753965 9.98168939,19.4982406 C14.6448077,6.70543799 24.4468255,2.98021087 37.7913351,3 C61.6561536,2.96479676 65.7335528,15.5794304 66.9206964,32.2098925 C67.1188616,34.988512 67.2384998,34.629454 63.4835232,34.9862452 C62.9786408,35.0338476 59.8814433,34.9517902 55.3915464,34.8339176 C51.0707134,34.7205786 46.239455,22.1630678 40.4072082,22.0683164 C36.9007465,22.0111935 33.1476176,29.0985095 29.7566368,29.1773935 C19.7384387,29.4108719 11.011317,30.1434953 10.9766727,30.1353349" id="Fill-15" fill="#525252"></path>
                <path d="M68.4682514,43.1794366 C73.0258004,44.1518398 70.6002796,41.9884419 67.6690914,41.0104097 C66.6596261,40.673141 64.984194,39.9090093 61.6824012,39.4408673 C54.5128607,38.4257777 44.6771166,37.9961002 39.9106644,38.000791 C28.2036707,37.9637337 18.4268121,39.2368174 12.5462093,40.1168119 C8.92007899,40.6590686 4.8915646,44.5726048 6.28098146,44.9858645 C6.70112466,45.1111089 7.96762977,44.3788747 9.51641128,43.7864264 C11.2007229,43.1419101 18.3983041,42.3346231 20.6887622,42.1371403 C24.1522564,41.8378672 34.2651361,41.5770586 38.5072272,41.4710464 C42.1305534,41.3800449 45.6305005,41.3472092 48.7892858,41.3528382 C53.3627245,41.3603435 56.160252,41.7975263 58.2525558,41.8965022 C62.2128378,42.0836652 63.4999061,42.1188462 68.4682514,43.1794366" id="Fill-16" fill="#636363"></path>
                <path d="M5.21563395,30.9107905 C13.569073,30.0589569 22.0016498,29.4916991 30.5207693,29.2355335 L30.5207693,24 C21.8878024,24.1983982 13.5588915,24.6870543 5.11289359,25.5526195 C4.62788505,25.6023375 4.52884704,25.7282895 4.42703228,25.9233731 C4.35298517,26.0644773 4.01190569,29.0608105 4.0031126,29.3823197 C3.97904729,30.2360474 4.09937384,30.6806676 4.19702346,30.8714897 C4.30254058,31.0788844 4.41731359,30.9917597 5.21563395,30.9107905 Z M75.7843761,30.9107905 C67.4304743,30.0589569 58.9978974,29.4916991 50.478778,29.2355335 L50.478778,24 C59.1117448,24.1983982 67.4406558,24.6870543 75.8866537,25.5526195 C76.3716622,25.6023375 76.471163,25.7282895 76.5729778,25.9233731 C76.6465621,26.0644773 76.9876416,29.0608105 76.9968974,29.3823197 C77.0209628,30.2360474 76.9001734,30.6806676 76.8025238,30.8714897 C76.6970067,31.0788844 76.5826965,30.9917597 75.7843761,30.9107905 L75.7843761,30.9107905 Z" id="Fill-17" fill="#94744C"></path>
                <path d="M58.7716477,15.2195705 C52.8949143,14.4865181 47.4995547,15.6365111 44.4029629,17.9601146 C41.1474531,20.4031684 41.0393519,20.6161805 37.6993014,18.0386884 C34.6202646,15.6623996 29.1703924,14.4783428 23.2275972,15.2195705 C14.445528,16.3150615 9.28715958,20.481288 10.0799019,27.9103697 C11.3775785,40.0852163 28.9435646,40.3395591 37.1537137,33.4677607 C38.566421,32.2850665 39.4266111,30.7908023 39.9250778,29.1244026 C40.0447283,28.7229042 40.4563445,28.2905214 41.0291886,28.3777247 C41.3461007,28.4258681 41.9032377,28.5934619 42.0358234,29.1062352 C42.4700762,30.7830812 43.4226604,32.2805246 44.8459932,33.4673065 C53.0681534,40.3250252 70.6216664,40.0852163 71.9202669,27.9103697 C72.7120853,20.4808338 67.5541788,16.3155156 58.7716477,15.2195705" id="Fill-18" fill="#AA885D"></path>
                <path d="M58.1177178,17.172098 C51.5564161,16.3140648 45.7970615,18.7475186 45.3750082,22.6214108 C45.0061126,26.003043 45.317268,29.3511657 47.7139441,31.4528278 C53.8476934,36.8308738 66.9702968,36.6321763 67.9404236,27.1036664 C68.5320314,21.2895243 64.6785612,18.0291872 58.1177178,17.172098 Z M23.8819106,17.172098 C30.4436705,16.3140648 36.2025669,18.7475186 36.6250784,22.6214108 C36.9935158,26.003043 36.6823604,29.3516377 34.2856843,31.4528278 C28.1523932,36.8308738 15.0293316,36.6317044 14.059663,27.1036664 C13.467597,21.2895243 17.3210671,18.0296591 23.8819106,17.172098 L23.8819106,17.172098 Z" id="Fill-19" fill="#262626"></path>
                <path d="M46.3816253,26.6796888 C49.3517464,27.4835524 53.8039456,26.3582413 55.9440112,24.2314033 C58.8030912,21.391216 58.9453339,19.0481226 54.6766739,19.004578 C52.0447235,18.9776684 48.3303514,19.5584268 46.4743125,20.9748509 C45.0216007,22.0830377 44.0543498,26.0504932 46.3816253,26.6796888 Z M22.1049116,19.1180876 C27.1985799,18.3567902 35.3963527,21.2958092 29.8571434,27.3754247 C26.761298,30.7728856 19.2981403,32.1188555 15.6883855,29.945048 C13.8020627,28.8094624 13.7621429,27.6758338 14.2944062,25.2544579 C15.060223,21.7694184 17.8963606,19.7472833 22.1049116,19.1180876 L22.1049116,19.1180876 Z" id="Fill-20" fill="#393939"></path>
                <path d="M13.8108933,122.590205 C13.5998459,117.593819 12.5548679,114.117551 11.824507,111.551154 C11.7209374,111.189312 10.3134659,107.664225 11.4253733,107.377527 C12.6848184,106.056038 19.8579887,100.952439 22.6445966,99.6644542 C24.0774719,99.0020345 24.1932549,98.4827243 24.6021593,99.9080753 C25.4761498,102.956929 25.3803968,118.116958 19.3328128,108.352011 C16.6487974,104.018523 17.1153491,108.544419 17.3434953,110.148777 C17.7538653,113.031068 17.4641636,122.989859 16.3278294,124.888093 C15.2652642,126.661884 13.9804152,126.597748 13.8108933,122.590205" id="Fill-21" fill="#3F3F3F"></path>
            </g>
        </g>
    </g>
</svg>