<?xml version="1.0" encoding="UTF-8"?>
<svg width="1024px" height="204px" viewBox="0 0 1024 204" version="1.1" xmlns="http://www.w3.org/2000/svg" xmlns:xlink="http://www.w3.org/1999/xlink">
    <!-- Generator: Sketch 60.1 (88133) - https://sketch.com -->
    <title>listingslab-plugin</title>
    <desc>Created with Sketch.</desc>
    <g id="content" stroke="none" stroke-width="1" fill="none" fill-rule="evenodd">
        <g id="listingslab-plugin">
            <rect id="invisible" fill-opacity="0.01" fill="#FFFFFF" x="0" y="12" width="1024" height="192"></rect>
            <g id="canntown" transform="translate(132.000000, 0.000000)">
                <path d="M8,178.518961 L14.4570811,137.563546 C11.1326416,133.069867 9.0331259,127.842308 8.32467649,122.22122 C6.81117093,110.234529 12.1027785,98.4020585 21.7262958,91.4514794 L25.3582491,68.4140587 L69.8399899,36.0063853 L78.4864698,47.9186249 L99.4577401,51.2370346 L96.1462169,72.2447656 L97.6961711,74.3843598 C101.187284,60.6179233 112.778854,49.6912797 127.673277,47.7945391 C133.682004,47.0358429 139.811578,47.8282195 145.401321,50.090127 C154.263662,53.6744348 161.185553,60.6285592 164.82016,69.2046627 L194.627585,40.3866151 L204.040549,50.1592605 L203.566363,44.298864 L210.217365,36.4548669 L208.276383,12.4761666 L232.210437,10.533337 L239.187001,2.31176449 L281.092385,37.9988492 L284.307301,77.7045421 L288.904084,77.8304006 C290.652205,63.2219531 302.131775,51.0792683 317.348221,49.1488473 C320.343738,48.7694992 323.372872,48.8084976 326.340079,49.2587519 L326.915119,37.9314883 L334.539266,31.0340888 L335.76189,7.00575417 L359.745486,8.23065857 L367.739428,1 L400.647646,37.5202324 L407.017321,30.1849872 L418.112941,39.8548187 L439.290341,38.3781973 L440.765983,59.5951015 L448.515754,66.3506886 L449.258883,77.0096614 L451.412187,77.0929762 C451.371492,76.8111241 451.329027,76.5310447 451.295409,76.2509652 C449.027097,58.2815644 461.777063,41.8118295 479.709468,39.5375135 C485.254624,38.8373148 490.911249,39.5641033 496.070686,41.6522905 C496.41571,41.7905576 496.757195,41.9376879 497.093373,42.0883636 L497.935585,37.2454709 L506.334709,31.3212589 L510.450227,7.62086535 L534.111801,11.7422876 L542.917876,5.53445076 L572.211304,47.2432435 C577.282273,39.6332368 585.256752,33.9678323 594.905041,32.0746371 C601.676359,30.7451461 608.624613,31.4081189 614.999596,33.9855589 C624.171928,37.6957252 631.244037,44.9299291 634.775667,53.9438783 L665.649128,31.4471173 L674.299501,43.3629023 L695.268117,46.6795393 L691.957656,67.689043 L698,76.0152021 L672.684081,185.274548 L638.002969,179.37338 L637.847266,181.762919 L552.755486,176.234009 L550.181075,191.069356 L501.75739,182.635065 L418.465043,179.41947 L397.519428,180.880137 L397.307106,185.054739 L319.621841,181.087538 L319.641304,180.701099 L292.58611,179.960129 L292.658653,180.873046 L230.947118,185.887887 L230.874575,189.957902 L153.10332,188.580549 L153.251946,180.151576 L85.7694855,184.735661 L84.833851,190.675827 L59.6870818,186.699762 L38.5004811,192 L37.6823317,183.216496 L8,178.518961 Z" id="Fill-38" fill="#A6D4D1"></path>
                <path d="M29.6816163,182.212951 L0,177.518961 L6.45637171,136.560001 C3.13175608,132.069867 1.03241789,126.842308 0.323968666,121.22122 C-1.18865183,109.234529 4.10206966,97.4002859 13.7246998,90.4497067 L17.3566522,67.4140587 L61.8392663,35.00284 L70.4855671,46.9168523 L91.4587783,50.2352619 L88.1454865,71.2447656 L89.6972097,73.3808145 C93.1865522,59.6126053 104.778119,48.6859617 119.672539,46.7980844 C125.681264,46.0358429 131.811721,46.8264469 137.400578,49.0865817 C146.263802,52.6691168 153.184806,59.6267866 156.819412,68.2046627 L186.625945,39.3830698 L196.040676,49.1610332 L195.566489,43.2953187 L202.21749,35.4548669 L200.276509,11.4726213 L224.210557,9.52979174 L231.187118,1.30644652 L273.092492,36.9970765 L276.307408,76.7045421 L280.902419,76.8286279 C282.65231,62.2219531 294.131877,50.0774956 309.346549,48.1470747 C312.342065,47.7712719 315.372968,47.8084976 318.338405,48.2552066 L318.915214,36.9297156 L326.53936,30.0340888 L327.760214,6.00575417 L351.745573,7.22888592 L359.737743,0 L392.647722,36.5184597 L399.015626,29.1832145 L410.111244,38.853046 L431.288638,37.374652 L432.764279,58.5933289 L440.517587,65.348916 L441.258946,76.0096614 L443.41225,76.0912035 C443.369785,75.8111241 443.33086,75.529272 443.295473,75.2474199 C441.025392,57.2797917 453.775355,40.8100568 471.709524,38.5339681 C477.254678,37.8355422 482.909533,38.5658759 488.070738,40.6522905 C488.415762,40.7923303 488.755478,40.93237 489.093424,41.0865909 L489.935637,36.2419256 L498.334759,30.3212589 L502.450275,6.6190927 L526.111843,10.7422876 L534.916147,4.53445076 L564.211336,46.2450161 C569.282304,38.6332368 577.256781,32.9660597 586.905067,31.0728645 C593.674614,29.7451461 600.624636,30.4081189 606.999617,32.9855589 C616.170177,36.6957252 623.242284,43.9299291 626.773914,52.9421057 L657.650906,30.4471173 L666.297738,42.3629023 L687.268118,45.6795393 L683.955888,66.689043 L690,75.0169748 L672.644409,185.116559 L630.001215,178.37338 L629.847282,180.761146 L544.753753,175.234009 L542.179344,190.067584 L493.757441,181.63152 L410.463345,178.417697 L389.517736,179.876592 L389.305413,184.058284 L311.620169,180.083992 L311.641401,179.702872 L284.584444,178.961902 L284.658757,179.869501 L222.947238,184.884341 L222.874695,188.957902 L145.102575,187.578776 L145.251201,179.149803 L77.7694655,183.733888 L76.8322389,189.675827 L51.6870685,185.69799 L30.4997655,191 L29.6816163,182.212951" id="Fill-39" fill="#FFFFFE"></path>
                <path d="M290.191961,84.0148317 C288.530072,70.8629042 297.843018,58.8543147 310.991227,57.1924038 C324.137665,55.528723 336.146091,64.8382559 337.807979,77.9901834 C339.469868,91.1385712 330.160462,103.145391 317.010483,104.807302 C303.864044,106.472752 291.853849,97.1579099 290.191961,84.0148317" id="Fill-40" fill="#BEC935"></path>
                <polyline id="Fill-41" fill="#664628" points="332 82.1541197 316.730298 97.5577949 311.831874 66 313.791594 87.3023118 300 75.4303497 313.987741 89.4611737 318.998249 144 323.751313 142.794309 317.087566 99.8749259 332 82.1541197"></polyline>
                <path d="M452.191955,74.0133876 C450.530114,60.8649834 459.842796,48.8599186 472.990632,47.192696 C486.136699,45.5272433 498.144785,54.8420975 499.808396,67.9905017 C501.468467,81.1371361 492.157555,93.1475104 479.009718,94.8076535 C465.863652,96.4713364 453.852027,87.1582521 452.191955,74.0133876" id="Fill-42" fill="#BEC935"></path>
                <polyline id="Fill-43" fill="#664628" points="495 72.1505631 479.732885 87.5560166 474.834729 56 476.79259 77.2987552 463 65.4285714 476.988727 79.4593954 481.997209 134 486.750014 132.792531 480.090133 89.8713693 495 72.1505631"></polyline>
                <path d="M98.2122288,85.8279414 C96.375941,71.3081836 106.659258,58.0519291 121.177233,56.21283 C135.693277,54.3737309 148.95249,64.6572431 150.7879,79.1787557 C152.62331,93.6967586 142.343503,106.954768 127.825528,108.786848 C113.307729,110.627702 100.045182,100.34068 98.2122288,85.8279414" id="Fill-44" fill="#BEC935"></path>
                <polyline id="Fill-45" fill="#664628" points="145 83.8091923 127.822307 100.79439 122.313663 66 124.514679 89.487358 109 76.3985259 124.735825 91.8677859 130.372379 152 135.720561 150.670693 128.225853 103.347364 145 83.8091923"></polyline>
                <path d="M568.498869,71.5960052 C565.686109,57.232009 575.052616,43.315462 589.412955,40.4974094 C603.76803,37.6898851 617.689698,47.051224 620.502457,61.4117108 C623.309953,75.7704429 613.952219,89.6922541 599.59188,92.5015331 C585.231541,95.3125668 571.306364,85.9494732 568.498869,71.5960052" id="Fill-46" fill="#BEC935"></path>
                <polyline id="Fill-47" fill="#664628" points="615 66.388056 599.199728 84.6408128 591.434234 50 595.181465 73.4863503 579 61.3640193 595.557412 75.8660637 605.146687 136 610.331261 134.298683 599.76802 87.1821336 615 66.388056"></polyline>
                <polyline id="Fill-48" fill="#E9853D" points="344.809516 39 335 38.4944924 336.190484 15 346 15.5037213 344.809516 39"></polyline>
                <polyline id="Fill-49" fill="#E9853D" points="327.156618 50.5621265 358.607334 22 387 53.6402015 380.845144 175 321 171.930785 327.156618 50.5621265"></polyline>
                <polyline id="Fill-50" fill="#2D2E2C" points="327 49.9176802 358.807652 21.3161653 387.522547 53 388 43.6820602 359.283324 12 327.477453 40.6068383 327 49.9176802"></polyline>
                <polyline id="Fill-51" fill="#FFFFFE" points="376.721043 80 360 79.1448639 361.278957 54 378 54.8586479 376.721043 80"></polyline>
                <polyline id="Fill-52" fill="#C3E5EB" points="375.519008 66 376 56.2915748 370.480992 56 370 65.7118156 375.519008 66"></polyline>
                <polyline id="Fill-53" fill="#C3E5EB" points="367.516369 66 368 56.2882333 362.483631 56 362 65.7100712 367.516369 66"></polyline>
                <polyline id="Fill-54" fill="#C3E5EB" points="362.480462 68 362 77.7118644 367.516236 78 368 68.2915254 362.480462 68"></polyline>
                <polyline id="Fill-55" fill="#C3E5EB" points="369.483898 68 369 77.7101695 374.516102 78 375 68.2881356 369.483898 68"></polyline>
                <polyline id="Fill-56" fill="#FFFFFE" points="374.719416 116 358 115.146562 359.282336 90 376 90.8587059 374.719416 116"></polyline>
                <polyline id="Fill-57" fill="#C3E5EB" points="373.517754 103 374 93.2883311 368.483898 93 368 102.711669 373.517754 103"></polyline>
                <polyline id="Fill-58" fill="#C3E5EB" points="366.517887 102 367 92.289978 361.482113 92 361 101.710022 366.517887 102"></polyline>
                <polyline id="Fill-59" fill="#C3E5EB" points="360.483631 104 360 113.711767 365.516369 114 366 104.288233 360.483631 104"></polyline>
                <polyline id="Fill-60" fill="#C3E5EB" points="367.480859 105 367 114.710071 372.519141 115 373 105.291624 367.480859 105"></polyline>
                <polyline id="Fill-61" fill="#FFFFFE" points="372.721043 153 356 152.144748 357.277205 127 374 127.857008 372.721043 153"></polyline>
                <polyline id="Fill-62" fill="#C3E5EB" points="371.516102 139 372 129.289929 366.483898 129 366 138.711767 371.516102 139"></polyline>
                <polyline id="Fill-63" fill="#C3E5EB" points="364.516236 139 365 129.286489 359.480462 129 359 138.71012 364.516236 139"></polyline>
                <polyline id="Fill-64" fill="#C3E5EB" points="358.481981 141 358 150.708376 363.516369 151 364 141.286538 358.481981 141"></polyline>
                <polyline id="Fill-65" fill="#C3E5EB" points="366.482246 141 366 150.710169 371.516102 151 372 141.289831 366.482246 141"></polyline>
                <polyline id="Fill-66" fill="#FFFFFE" points="352.719665 79 336 78.1463892 337.278583 53 354 53.8553672 352.719665 79"></polyline>
                <polyline id="Fill-67" fill="#C3E5EB" points="351.518019 65 352 55.2897814 346.481981 55 346 64.7102186 351.518019 65"></polyline>
                <polyline id="Fill-68" fill="#C3E5EB" points="343.517887 65 344 55.293121 338.483764 55 338 64.7085734 343.517887 65"></polyline>
                <polyline id="Fill-69" fill="#C3E5EB" points="337.481981 66 337 75.7101204 342.518019 76 343 66.2881844 337.481981 66"></polyline>
                <polyline id="Fill-70" fill="#C3E5EB" points="345.481981 67 345 76.7135593 350.514718 77 351 67.2881356 345.481981 67"></polyline>
                <polyline id="Fill-71" fill="#FFFFFE" points="350.721417 115 334 114.146447 335.280335 89 352 89.8553094 350.721417 115"></polyline>
                <polyline id="Fill-72" fill="#C3E5EB" points="349.517887 102 350 92.2900271 344.482113 92 344 101.711669 349.517887 102"></polyline>
                <polyline id="Fill-73" fill="#C3E5EB" points="341.517887 101 342 91.2883311 336.482113 91 336 100.709973 341.517887 101"></polyline>
                <polyline id="Fill-74" fill="#C3E5EB" points="336.482113 103 336 112.710022 341.517887 113 342 103.288282 336.482113 103"></polyline>
                <polyline id="Fill-75" fill="#C3E5EB" points="343.483631 103 343 112.711718 348.516369 113 349 103.288282 343.483631 103"></polyline>
                <polyline id="Fill-76" fill="#FFFFFE" points="348.719665 152 332 151.144748 333.280335 126 350 126.855252 348.719665 152"></polyline>
                <polyline id="Fill-77" fill="#C3E5EB" points="347.516369 138 348 128.288184 342.481981 128 342 137.708425 347.516369 138"></polyline>
                <polyline id="Fill-78" fill="#C3E5EB" points="339.517887 138 340 128.289978 334.483764 128 334 137.711718 339.517887 138"></polyline>
                <polyline id="Fill-79" fill="#C3E5EB" points="334.481981 140 334 149.708524 339.518019 150 340 140.289781 334.481981 140"></polyline>
                <polyline id="Fill-80" fill="#C3E5EB" points="341.483764 140 341 149.711718 346.517887 150 347 140.288282 341.483764 140"></polyline>
                <polyline id="Fill-81" fill="#E9853D" points="222 42.2080725 211.941364 43 210 19.7901598 220.060459 19 222 42.2080725"></polyline>
                <polyline id="Fill-82" fill="#E9853D" points="206 55.3520108 233.642973 23 266.164013 50.499827 276 171.144286 215.834212 176 206 55.3520108"></polyline>
                <polyline id="Fill-83" fill="#2D2E2C" points="205.75517 56 233.435275 23.3349175 266 51.1008614 265.24483 41.7623796 232.681882 14 205 46.6615182 205.75517 56"></polyline>
                <polyline id="Fill-84" fill="#FFFFFE" points="258 78.6127191 241.059341 80 239 54.3854886 255.937102 53 258 78.6127191"></polyline>
                <polyline id="Fill-85" fill="#C3E5EB" points="256 65.504008 255.144588 55 249 55.497829 249.855412 66 256 65.504008"></polyline>
                <polyline id="Fill-86" fill="#C3E5EB" points="248 65.5039252 247.145263 55 241 55.4942375 241.854737 66 248 65.5039252"></polyline>
                <polyline id="Fill-87" fill="#C3E5EB" points="242 67.497829 242.854962 78 249 77.504008 248.146881 67 242 67.497829"></polyline>
                <polyline id="Fill-88" fill="#C3E5EB" points="250 67.4960748 250.855412 78 257 77.5057625 256.144588 67 250 67.4960748"></polyline>
                <polyline id="Fill-89" fill="#FFFFFE" points="261 114.612719 244.060927 116 242 90.3854886 258.939073 89 261 114.612719"></polyline>
                <polyline id="Fill-90" fill="#C3E5EB" points="259 101.503759 258.144588 91 252 91.4999165 252.853569 102 259 101.503759"></polyline>
                <polyline id="Fill-91" fill="#C3E5EB" points="251 102.503759 250.146656 92 244 92.4962406 244.853344 103 251 102.503759"></polyline>
                <polyline id="Fill-92" fill="#C3E5EB" points="245 104.499666 245.854737 115 252 114.504008 251.143421 104 245 104.499666"></polyline>
                <polyline id="Fill-93" fill="#C3E5EB" points="253 103.49432 253.853569 114 260 113.500167 259.144588 103 253 103.49432"></polyline>
                <polyline id="Fill-94" fill="#FFFFFE" points="264 151.617821 247.061119 153 245 127.383972 261.938881 126 264 151.617821"></polyline>
                <polyline id="Fill-95" fill="#C3E5EB" points="262 138.502171 261.144813 128 255 128.497829 255.85703 139 262 138.502171"></polyline>
                <polyline id="Fill-96" fill="#C3E5EB" points="254 138.504091 253.146881 128 247 128.495909 247.854962 139 254 138.504091"></polyline>
                <polyline id="Fill-97" fill="#C3E5EB" points="248 140.494155 248.854962 151 255 150.502171 254.145038 140 248 140.494155"></polyline>
                <polyline id="Fill-98" fill="#C3E5EB" points="256 140.49432 256.853569 151 263 150.50568 262.144588 140 256 140.49432"></polyline>
                <polyline id="Fill-99" fill="#FFFFFE" points="234 80.6125349 217.060541 82 215 56.38388 231.941237 55 234 80.6125349"></polyline>
                <polyline id="Fill-100" fill="#C3E5EB" points="231 67.5022541 230.144813 57 224 57.4922358 224.855187 68 231 67.5022541"></polyline>
                <polyline id="Fill-101" fill="#C3E5EB" points="224 67.5022541 223.146881 57 217 57.5014193 217.853119 68 224 67.5022541"></polyline>
                <polyline id="Fill-102" fill="#C3E5EB" points="218 69.4994992 218.853119 80 225 79.5041736 224.145038 69 218 69.4994992"></polyline>
                <polyline id="Fill-103" fill="#C3E5EB" points="225 69.4924002 225.853344 80 232 79.5039252 231.144813 69 225 69.4924002"></polyline>
                <polyline id="Fill-104" fill="#FFFFFE" points="237 116.616028 220.062319 118 218 92.3875573 234.941237 91 237 116.616028"></polyline>
                <polyline id="Fill-105" fill="#C3E5EB" points="234 103.503842 233.145038 93 227 93.4998329 227.853119 104 234 103.503842"></polyline>
                <polyline id="Fill-106" fill="#C3E5EB" points="227 104.500167 226.145038 94 220 94.4979953 220.853119 105 227 104.500167"></polyline>
                <polyline id="Fill-107" fill="#C3E5EB" points="221 106.499749 221.854962 117 228 116.503925 227.146881 106 221 106.499749"></polyline>
                <polyline id="Fill-108" fill="#C3E5EB" points="228 105.494403 228.854962 116 235 115.503759 234.145038 105 228 105.494403"></polyline>
                <polyline id="Fill-109" fill="#FFFFFE" points="240 153.614511 223.060541 155 221 129.387281 237.939459 128 240 153.614511"></polyline>
                <polyline id="Fill-110" fill="#C3E5EB" points="237 140.502171 236.146656 130 230 130.497829 230.855187 141 237 140.502171"></polyline>
                <polyline id="Fill-111" fill="#C3E5EB" points="230 140.505762 229.145038 130 223 130.499749 223.854962 141 230 140.505762"></polyline>
                <polyline id="Fill-112" fill="#C3E5EB" points="224 142.499749 224.854737 153 231 152.505762 230.145263 142 224 142.499749"></polyline>
                <polyline id="Fill-113" fill="#C3E5EB" points="231 142.497746 231.853119 153 238 152.498581 237.145038 142 231 142.497746"></polyline>
                <polyline id="Fill-114" fill="#E9853D" points="666 72.5794286 674.813022 74 678 53.4223673 669.185218 52 666 72.5794286"></polyline>
                <polyline id="Fill-115" fill="#E9853D" points="680 86.469408 655.108998 52 620.88717 77.0641509 607 165.598286 666.114589 175 680 86.469408"></polyline>
                <polyline id="Fill-116" fill="#2D2E2C" points="679.54686 87 654.473099 52.2694523 620 77.5234888 621.45314 68.2576065 655.926239 43 681 77.7287627 679.54686 87"></polyline>
                <polyline id="Fill-117" fill="#FFFFFE" points="625 105.332396 641.977308 108 646 82.6658147 629.022692 80 625 105.332396"></polyline>
                <polyline id="Fill-118" fill="#C3E5EB" points="629 92.0722249 630.493333 82 636 82.9277751 634.508333 93 629 92.0722249"></polyline>
                <polyline id="Fill-119" fill="#C3E5EB" points="637 93.071925 638.493689 83 644 83.9245192 642.507978 94 637 93.071925"></polyline>
                <polyline id="Fill-120" fill="#C3E5EB" points="642 95.9262971 640.508333 106 635 105.071925 636.491667 95 642 95.9262971"></polyline>
                <polyline id="Fill-121" fill="#C3E5EB" points="635 94.9248181 633.507978 105 628 104.069846 629.492022 94 635 94.9248181"></polyline>
                <polyline id="Fill-122" fill="#FFFFFE" points="620 141.334526 636.977652 144 641 118.667263 624.022348 116 620 141.334526"></polyline>
                <polyline id="Fill-123" fill="#C3E5EB" points="624 128.073553 625.492022 118 631 118.930003 629.507978 129 624 128.073553"></polyline>
                <polyline id="Fill-124" fill="#C3E5EB" points="631 129.071925 632.491065 119 638 119.931631 636.508935 130 631 129.071925"></polyline>
                <polyline id="Fill-125" fill="#C3E5EB" points="636 131.930003 634.50929 142 629 141.071775 630.49071 131 636 131.930003"></polyline>
                <polyline id="Fill-126" fill="#C3E5EB" points="629 130.926447 627.50929 141 622 140.073553 623.49071 130 629 130.926447"></polyline>
                <polyline id="Fill-127" fill="#FFFFFE" points="649 109.331119 665.97551 112 670 86.6670926 653.019096 84 649 109.331119"></polyline>
                <polyline id="Fill-128" fill="#C3E5EB" points="653 96.0737029 654.489645 86 660 86.9262971 658.507022 97 653 96.0737029"></polyline>
                <polyline id="Fill-129" fill="#C3E5EB" points="661 97.0735532 662.49 87 668 87.9246686 666.508333 98 661 97.0735532"></polyline>
                <polyline id="Fill-130" fill="#C3E5EB" points="666 99.928225 664.508688 110 659 109.071775 660.489645 99 666 99.928225"></polyline>
                <polyline id="Fill-131" fill="#C3E5EB" points="659 98.927925 657.508333 109 652 108.06852 653.49 98 659 98.927925"></polyline>
                <polyline id="Fill-132" fill="#FFFFFE" points="644 145.331119 660.979106 148 665 122.665304 648.02449 120 644 145.331119"></polyline>
                <polyline id="Fill-133" fill="#C3E5EB" points="648 132.070147 649.491667 122 655 122.926297 653.511667 133 648 132.070147"></polyline>
                <polyline id="Fill-134" fill="#C3E5EB" points="655 133.075182 656.491667 123 662 123.926597 660.51 134 655 133.075182"></polyline>
                <polyline id="Fill-135" fill="#C3E5EB" points="660 135.931631 658.51 146 653 145.071925 654.491667 135 660 135.931631"></polyline>
                <polyline id="Fill-136" fill="#C3E5EB" points="653 134.927925 651.51 145 646 144.06852 647.493333 134 653 134.927925"></polyline>
                <polyline id="Fill-137" fill="#E9853D" points="70 76.5793126 78.8160859 78 82 57.4206874 73.186378 56 70 76.5793126"></polyline>
                <polyline id="Fill-138" fill="#E9853D" points="83 91.4686294 58.109938 57 23.8871364 82.064873 10 170.599787 69.1153265 180 83 91.4686294"></polyline>
                <polyline id="Fill-139" fill="#2D2E2C" points="83.5463448 91 58.4737613 56.2712373 24 81.5252738 25.4527691 72.2540365 59.9274164 47 85 81.7287627 83.5463448 91"></polyline>
                <polyline id="Fill-140" fill="#FFFFFE" points="29 110.32933 45.9777363 113 50 87.6670926 33.0222637 85 29 110.32933"></polyline>
                <polyline id="Fill-141" fill="#C3E5EB" points="33 97.071925 34.4926066 87 40 87.9262971 38.5080601 98 33 97.071925"></polyline>
                <polyline id="Fill-142" fill="#C3E5EB" points="41 98.0771096 42.4923062 88 48 88.9264468 46.5085275 99 41 98.0771096"></polyline>
                <polyline id="Fill-143" fill="#C3E5EB" points="46 100.929552 44.5083963 111 39 110.06867 40.4931044 100 46 100.929552"></polyline>
                <polyline id="Fill-144" fill="#C3E5EB" points="38 98.9262971 36.5080492 109 31 108.070147 32.4911174 98 38 98.9262971"></polyline>
                <polyline id="Fill-145" fill="#FFFFFE" points="23 146.334526 39.9786354 149 44 123.665474 27.0222637 121 23 146.334526"></polyline>
                <polyline id="Fill-146" fill="#C3E5EB" points="28 133.071775 29.4922597 123 35 123.928225 33.5094074 134 28 133.071775"></polyline>
                <polyline id="Fill-147" fill="#C3E5EB" points="35 134.072075 36.4916037 124 42 124.927925 40.5077293 135 35 134.072075"></polyline>
                <polyline id="Fill-148" fill="#C3E5EB" points="40 136.930003 38.5082186 147 33 146.073553 34.4924484 136 40 136.930003"></polyline>
                <polyline id="Fill-149" fill="#C3E5EB" points="33 135.929853 31.5072157 146 26 145.070147 27.4927843 135 33 135.929853"></polyline>
                <polyline id="Fill-150" fill="#FFFFFE" points="53 113.334696 69.9788076 116 74 90.6670926 57.0211924 88 53 113.334696"></polyline>
                <polyline id="Fill-151" fill="#C3E5EB" points="57 101.070448 58.490929 91 64 91.9277751 62.5084044 102 57 101.070448"></polyline>
                <polyline id="Fill-152" fill="#C3E5EB" points="65 102.068971 66.4921092 92 72 92.9310289 70.5087239 103 65 102.068971"></polyline>
                <polyline id="Fill-153" fill="#C3E5EB" points="70 103.928375 68.5110815 114 63 113.075182 64.4922513 103 70 103.928375"></polyline>
                <polyline id="Fill-154" fill="#C3E5EB" points="63 102.930154 61.5088935 113 56 112.071625 57.4901064 102 63 102.930154"></polyline>
                <polyline id="Fill-155" fill="#FFFFFE" points="48 150.334526 64.9784632 153 69 127.67263 52.0224359 125 48 150.334526"></polyline>
                <polyline id="Fill-156" fill="#C3E5EB" points="52 137.071925 53.4915956 127 59 127.929853 57.5092377 138 52 137.071925"></polyline>
                <polyline id="Fill-157" fill="#C3E5EB" points="59 138.070297 60.490929 128 66 128.935036 64.5084044 139 59 138.070297"></polyline>
                <polyline id="Fill-158" fill="#C3E5EB" points="64 140.929853 62.5085819 151 57 150.071925 58.4905849 140 64 140.929853"></polyline>
                <polyline id="Fill-159" fill="#C3E5EB" points="57 138.928225 55.509071 149 50 148.071775 51.4924289 138 57 138.928225"></polyline>
                <polyline id="Fill-160" fill="#AE243C" points="515.902749 42 506 40.2963521 510.099066 17 520 18.7018526 515.902749 42"></polyline>
                <polyline id="Fill-161" fill="#AE243C" points="496.672288 50.5614459 531.496692 26 556 60.9022671 535.327712 180 476 169.660953 496.672288 50.5614459"></polyline>
                <polyline id="Fill-162" fill="#2D2E2C" points="497 50.6798648 531.867525 26.1675519 556.401174 61 558 51.8271366 533.464578 17 498.595281 41.5034605 497 50.6798648"></polyline>
                <polyline id="Fill-163" fill="#FFFFFE" points="541.653525 86 525 83.0900324 529.344706 58 546 60.9064146 541.653525 86"></polyline>
                <polyline id="Fill-164" fill="#C3E5EB" points="543.163199 72 545 62.0142972 538.836801 61 537 70.9874699 543.163199 72"></polyline>
                <polyline id="Fill-165" fill="#C3E5EB" points="535.164057 71 537 61.0128555 530.837813 60 529 69.9853768 535.164057 71"></polyline>
                <polyline id="Fill-166" fill="#C3E5EB" points="528.837383 72 527 81.9873072 533.162617 83 535 73.0126928 528.837383 72"></polyline>
                <polyline id="Fill-167" fill="#C3E5EB" points="536.840112 73 535 82.9858657 541.161758 84 543 74.0141343 536.840112 73"></polyline>
                <polyline id="Fill-168" fill="#FFFFFE" points="535.653892 122 519 119.093954 523.346108 94 540 96.9078221 535.653892 122"></polyline>
                <polyline id="Fill-169" fill="#C3E5EB" points="536.163628 108 538 98.0146232 531.838242 97 530 106.987144 536.163628 108"></polyline>
                <polyline id="Fill-170" fill="#C3E5EB" points="529.162617 107 531 97.0144602 524.837383 96 523 105.98554 529.162617 107"></polyline>
                <polyline id="Fill-171" fill="#C3E5EB" points="522.835943 108 521 117.985377 527.162187 119 529 109.00932 522.835943 108"></polyline>
                <polyline id="Fill-172" fill="#C3E5EB" points="529.836372 109 528 118.985703 534.159888 120 536 110.014297 529.836372 109"></polyline>
                <polyline id="Fill-173" fill="#FFFFFE" points="529.653892 158 513 155.092178 517.346108 130 534 132.906046 529.653892 158"></polyline>
                <polyline id="Fill-174" fill="#C3E5EB" points="530.162187 144 532 134.016228 525.837813 133 524 142.98554 530.162187 144"></polyline>
                <polyline id="Fill-175" fill="#C3E5EB" points="523.161607 143 525 133.010763 518.838393 132 517 141.985703 523.161607 143"></polyline>
                <polyline id="Fill-176" fill="#C3E5EB" points="516.835943 144 515 153.985377 521.164057 155 523 145.012856 516.835943 144"></polyline>
                <polyline id="Fill-177" fill="#C3E5EB" points="523.837813 145 522 154.987307 528.160318 156 530 146.01446 523.837813 145"></polyline>
                <polyline id="Fill-178" fill="#FFFFFE" points="517.654624 82 501 79.0884406 505.343608 54 522 56.9080066 517.654624 82"></polyline>
                <polyline id="Fill-179" fill="#C3E5EB" points="519.162617 68 521 58.0126928 514.839252 57 513 66.9837725 519.162617 68"></polyline>
                <polyline id="Fill-180" fill="#C3E5EB" points="511.162617 67 513 57.0130183 506.837383 56 505 65.9887496 511.162617 67"></polyline>
                <polyline id="Fill-181" fill="#C3E5EB" points="504.835943 68 503 77.9873072 509.164057 79 511 69.0126928 504.835943 68"></polyline>
                <polyline id="Fill-182" fill="#C3E5EB" points="512.837813 69 511 78.9857028 517.164057 80 519 70.0142972 512.837813 69"></polyline>
                <polyline id="Fill-183" fill="#FFFFFE" points="511.653587 118 495 115.087034 499.346413 90 516 92.9076377 511.653587 118"></polyline>
                <polyline id="Fill-184" fill="#C3E5EB" points="512.162617 104 514 94.0096448 507.837383 93 506 102.986819 512.162617 104"></polyline>
                <polyline id="Fill-185" fill="#C3E5EB" points="505.164486 103 507 93.0131812 500.837383 92 499 101.986819 505.164486 103"></polyline>
                <polyline id="Fill-186" fill="#C3E5EB" points="498.837383 104 497 113.985703 503.162617 115 505 105.016064 498.837383 104"></polyline>
                <polyline id="Fill-187" fill="#C3E5EB" points="505.837383 105 504 114.986982 510.162617 116 512 106.013018 505.837383 105"></polyline>
                <polyline id="Fill-188" fill="#FFFFFE" points="505.654989 154 489 151.090402 493.345011 126 510 128.909598 505.654989 154"></polyline>
                <polyline id="Fill-189" fill="#C3E5EB" points="506.164057 140 508 130.01253 501.839682 129 500 138.985703 506.164057 140"></polyline>
                <polyline id="Fill-190" fill="#C3E5EB" points="499.162617 139 501 129.013018 494.837383 128 493 137.985214 499.162617 139"></polyline>
                <polyline id="Fill-191" fill="#C3E5EB" points="492.835943 140 491 149.98554 497.164057 151 499 141.01446 492.835943 140"></polyline>
                <polyline id="Fill-192" fill="#C3E5EB" points="499.837813 141 498 150.987144 504.164057 152 506 142.012856 499.837813 141"></polyline>
                <polyline id="Fill-193" fill="#78A695" points="416.372549 68 425 67.3783126 423.625746 47 415 47.618165 416.372549 68"></polyline>
                <polyline id="Fill-194" fill="#78A695" points="432.856815 79.0124795 400.840994 51 373 83.2036163 379.143185 172 439 167.808863 432.856815 79.0124795"></polyline>
                <polyline id="Fill-195" fill="#2D2E2C" points="433 78.8600376 400.720841 51.1895947 372.650847 83 372 73.8086525 400.07355 42 432.347375 69.6686902 433 78.8600376"></polyline>
                <polyline id="Fill-196" fill="#FFFFFE" points="383.795176 110 401 108.805852 399.20302 83 382 84.1995591 383.795176 110"></polyline>
                <polyline id="Fill-197" fill="#C3E5EB" points="384.745717 96 384 85.4287634 390.252409 85 391 95.5712366 384.745717 96"></polyline>
                <polyline id="Fill-198" fill="#C3E5EB" points="392.746117 96 392 85.4269153 398.255758 85 399 95.5712366 392.746117 96"></polyline>
                <polyline id="Fill-199" fill="#C3E5EB" points="399.253883 96 400 106.573156 393.746117 107 393 96.4286914 399.253883 96"></polyline>
                <polyline id="Fill-200" fill="#C3E5EB" points="391.252209 97 392 107.569605 385.747791 108 385 97.4267003 391.252209 97"></polyline>
                <polyline id="Fill-201" fill="#FFFFFE" points="386.79698 146 404 144.800361 402.204824 119 385 120.199639 386.79698 146"></polyline>
                <polyline id="Fill-202" fill="#C3E5EB" points="387.747591 133 387 122.426772 393.252409 122 394 132.571381 387.747591 133"></polyline>
                <polyline id="Fill-203" fill="#C3E5EB" points="394.747791 132 394 121.430539 400.252209 121 401 131.575004 394.747791 132"></polyline>
                <polyline id="Fill-204" fill="#C3E5EB" points="401.253883 133 402 143.573013 395.747991 144 395 133.428835 401.253883 133"></polyline>
                <polyline id="Fill-205" fill="#C3E5EB" points="393.253883 133 394 143.571165 387.747991 144 387 133.425139 393.253883 133"></polyline>
                <polyline id="Fill-206" fill="#FFFFFE" points="408.79681 108 426 106.802245 424.20319 81 407 82.1995591 408.79681 108"></polyline>
                <polyline id="Fill-207" fill="#C3E5EB" points="408.744043 94 408 83.4286914 414.255957 83 415 93.5694608 408.744043 94"></polyline>
                <polyline id="Fill-208" fill="#C3E5EB" points="416.745518 94 416 83.4269153 422.256355 83 423 93.5712366 416.745518 94"></polyline>
                <polyline id="Fill-209" fill="#C3E5EB" points="423.254482 95 424 105.573156 417.745518 106 417 95.4249958 423.254482 95"></polyline>
                <polyline id="Fill-210" fill="#C3E5EB" points="415.254283 95 416 105.565911 409.745717 106 409 95.4285474 415.254283 95"></polyline>
                <polyline id="Fill-211" fill="#FFFFFE" points="410.79698 144 428 142.846375 426.204824 118 409 119.151888 410.79698 144"></polyline>
                <polyline id="Fill-212" fill="#C3E5EB" points="411.747391 131 411 120.424996 417.252609 120 418 130.571309 411.747391 131"></polyline>
                <polyline id="Fill-213" fill="#C3E5EB" points="419.747391 130 419 119.434016 425.256355 119 426 129.571525 419.747391 130"></polyline>
                <polyline id="Fill-214" fill="#C3E5EB" points="425.252609 131 426 141.573085 419.747391 142 419 131.428763 425.252609 131"></polyline>
                <polyline id="Fill-215" fill="#C3E5EB" points="418.252609 132 419 142.571453 412.747391 143 412 132.430395 418.252609 132"></polyline>
                <polyline id="Fill-216" fill="#E9853D" points="420.119921 115 503 118.178034 500.881846 173 418 169.820206 420.119921 115"></polyline>
                <polyline id="Fill-217" fill="#2D2E2C" points="509 122 413 118.32372 422.450695 93 501.536502 96.0265922 509 122"></polyline>
                <polyline id="Fill-218" fill="#E9853D" points="434.635231 84 443 84.3241336 442.36121 101 434 100.675866 434.635231 84"></polyline>
                <polyline id="Fill-219" fill="#FFFFFE" points="492.020093 152 475 151.350531 475.985252 126 493 126.649469 492.020093 152"></polyline>
                <polyline id="Fill-220" fill="#C3E5EB" points="490.629526 138 491 128.218542 485.36879 128 485 137.779751 490.629526 138"></polyline>
                <polyline id="Fill-221" fill="#C3E5EB" points="483.629526 138 484 128.218505 478.373842 128 478 137.779788 483.629526 138"></polyline>
                <polyline id="Fill-222" fill="#C3E5EB" points="477.372054 140 477 149.779863 482.626263 150 483 140.216724 477.372054 140"></polyline>
                <polyline id="Fill-223" fill="#C3E5EB" points="485.37037 140 485 149.779863 490.62963 150 491 140.220137 485.37037 140"></polyline>
                <polyline id="Fill-224" fill="#FFFFFE" points="468.018409 151 451 150.348806 451.983373 125 469 125.651194 468.018409 151"></polyline>
                <polyline id="Fill-225" fill="#C3E5EB" points="466.627946 137 467 127.218467 461.372054 127 461 136.779826 466.627946 137"></polyline>
                <polyline id="Fill-226" fill="#C3E5EB" points="458.627946 137 459 127.216761 453.37037 127 453 136.781533 458.627946 137"></polyline>
                <polyline id="Fill-227" fill="#C3E5EB" points="453.37037 139 453 148.781533 458.627946 149 459 139.218467 453.37037 139"></polyline>
                <polyline id="Fill-228" fill="#C3E5EB" points="460.372054 139 460 148.779826 465.626263 149 466 139.220174 460.372054 139"></polyline>
                <polyline id="Fill-229" fill="#FFFFFE" points="443.01802 150 426 149.350487 426.983762 124 444 124.649513 443.01802 150"></polyline>
                <polyline id="Fill-230" fill="#C3E5EB" points="441.626158 137 442 127.220212 436.36879 127 436 136.783202 441.626158 137"></polyline>
                <polyline id="Fill-231" fill="#C3E5EB" points="434.629422 136 435 126.220212 429.372263 126 429 135.781495 434.629422 136"></polyline>
                <polyline id="Fill-232" fill="#C3E5EB" points="428.373737 138 428 147.779826 433.627946 148 434 138.216761 428.373737 138"></polyline>
                <polyline id="Fill-233" fill="#C3E5EB" points="436.372263 138 436 147.779901 441.629422 148 442 138.220099 436.372263 138"></polyline>
                <polyline id="Fill-234" fill="#78A695" points="540.197545 118 625 123.522998 621.807784 173 537 167.482351 540.197545 118"></polyline>
                <polyline id="Fill-235" fill="#2D2E2C" points="632 126 534 119.673266 544.340851 94 625.07234 99.2153523 632 126"></polyline>
                <polyline id="Fill-236" fill="#78A695" points="556.137669 87 565 87.5367872 563.860478 104 555 103.458001 556.137669 87"></polyline>
                <polyline id="Fill-237" fill="#FFFFFE" points="613.316456 157 596 155.883138 597.685326 130 615 131.116862 613.316456 157"></polyline>
                <polyline id="Fill-238" fill="#C3E5EB" points="612.30037 143 613 132.401685 606.701481 132 606 142.598315 612.30037 143"></polyline>
                <polyline id="Fill-239" fill="#C3E5EB" points="605.298148 143 606 132.39805 599.7 132 599 142.598315 605.298148 143"></polyline>
                <polyline id="Fill-240" fill="#C3E5EB" points="598.700185 144 598 154.598381 604.297962 155 605 144.401619 598.700185 144"></polyline>
                <polyline id="Fill-241" fill="#C3E5EB" points="606.7 144 606 154.600132 612.3 155 613 144.399868 606.7 144"></polyline>
                <polyline id="Fill-242" fill="#FFFFFE" points="588.314832 155 571 153.881436 572.683386 128 590 129.118564 588.314832 155"></polyline>
                <polyline id="Fill-243" fill="#C3E5EB" points="588.299815 142 589 131.399802 582.698333 131 582 141.598381 588.299815 142"></polyline>
                <polyline id="Fill-244" fill="#C3E5EB" points="580.298148 141 581 130.401619 574.698148 130 574 140.594746 580.298148 141"></polyline>
                <polyline id="Fill-245" fill="#C3E5EB" points="573.7 142 573 152.6 579.3 153 580 142.4 573.7 142"></polyline>
                <polyline id="Fill-246" fill="#C3E5EB" points="581.700185 143 581 153.59663 587.301667 154 588 143.405187 581.700185 143"></polyline>
                <polyline id="Fill-247" fill="#FFFFFE" points="564.315824 154 547 152.881657 548.685958 127 566 128.121893 564.315824 154"></polyline>
                <polyline id="Fill-248" fill="#C3E5EB" points="563.301667 140 564 129.4 557.700185 129 557 139.601818 563.301667 140"></polyline>
                <polyline id="Fill-249" fill="#C3E5EB" points="555.299629 139 556 128.401752 549.700371 128 549 138.598248 555.299629 139"></polyline>
                <polyline id="Fill-250" fill="#C3E5EB" points="548.702038 140 548 150.600132 554.299815 151 555 140.399868 548.702038 140"></polyline>
                <polyline id="Fill-251" fill="#C3E5EB" points="556.699815 141 556 151.596497 562.298334 152 563 141.401685 556.699815 141"></polyline>
                <polyline id="Fill-252" fill="#AE243C" points="200 79.8383234 208.648731 80 209 59.1634731 200.349564 59 200 79.8383234"></polyline>
                <polyline id="Fill-253" fill="#AE243C" points="216 91.7246241 186.321946 61 155.566791 90.6505848 154 178.927736 214.432854 180 216 91.7246241"></polyline>
                <polyline id="Fill-254" fill="#2D2E2C" points="215.836389 92 186.451427 61.3206293 156 90.9275427 156.164139 81.6122313 186.615038 52 216 82.682916 215.836389 92"></polyline>
                <polyline id="Fill-255" fill="#FFFFFE" points="165 118.695256 181.559895 119 182 93.3029509 165.440798 93 165 118.695256"></polyline>
                <polyline id="Fill-256" fill="#C3E5EB" points="167 104.896427 167.177649 95 173 95.1052995 172.822351 105 167 104.896427"></polyline>
                <polyline id="Fill-257" fill="#C3E5EB" points="174 104.898153 174.177494 95 180 95.1052995 179.822506 105 174 104.898153"></polyline>
                <polyline id="Fill-258" fill="#C3E5EB" points="180 106.100086 179.824246 116 174 115.896462 174.179234 106 180 106.100086"></polyline>
                <polyline id="Fill-259" fill="#C3E5EB" points="173 106.103538 172.822387 116 167 115.898188 167.176916 106 173 106.103538"></polyline>
                <polyline id="Fill-260" fill="#FFFFFE" points="164 154.698842 180.559904 155 181 129.302951 164.439923 129 164 154.698842"></polyline>
                <polyline id="Fill-261" fill="#C3E5EB" points="166 140.899827 166.176763 131 172 131.1019 171.823063 141 166 140.899827"></polyline>
                <polyline id="Fill-262" fill="#C3E5EB" points="174 140.898171 174.177546 131 180 131.103555 179.825936 141 174 140.898171"></polyline>
                <polyline id="Fill-263" fill="#C3E5EB" points="180 143.100121 179.824246 153 174 152.898153 174.175754 143 180 143.100121"></polyline>
                <polyline id="Fill-264" fill="#C3E5EB" points="172 143.10352 171.822392 153 166 152.899931 166.177782 143 172 143.10352"></polyline>
                <polyline id="Fill-265" fill="#FFFFFE" points="189 118.697007 205.559882 119 206 93.3029927 189.440118 93 189 118.697007"></polyline>
                <polyline id="Fill-266" fill="#C3E5EB" points="191 104.899879 191.177546 95 197 95.1018471 196.824195 105 191 104.899879"></polyline>
                <polyline id="Fill-267" fill="#C3E5EB" points="199 104.898153 199.177597 95 205 95.1035733 204.822403 105 199 104.898153"></polyline>
                <polyline id="Fill-268" fill="#C3E5EB" points="205 107.100086 204.822403 117 199 116.894737 199.179338 107 205 107.100086"></polyline>
                <polyline id="Fill-269" fill="#C3E5EB" points="197 107.101829 196.822403 117 191 116.901622 191.175856 107 197 107.101829"></polyline>
                <polyline id="Fill-270" fill="#FFFFFE" points="189 155.693506 205.559837 156 206 130.304702 189.440163 130 189 155.693506"></polyline>
                <polyline id="Fill-271" fill="#C3E5EB" points="191 141.899879 191.177649 132 197 132.103573 196.824093 142 191 141.899879"></polyline>
                <polyline id="Fill-272" fill="#C3E5EB" points="198 141.896462 198.175907 132 204 132.105263 203.822351 142 198 141.896462"></polyline>
                <polyline id="Fill-273" fill="#C3E5EB" points="204 144.100086 203.822454 154 198 153.894737 198.179286 144 204 144.100086"></polyline>
                <polyline id="Fill-274" fill="#C3E5EB" points="196 143.100104 195.822454 153 190 152.898171 190.177546 143 196 143.100104"></polyline>
                <polyline id="Fill-275" fill="#78A695" points="69 127.850054 154.624665 122 158 172.151729 72.3746266 178 69 127.850054"></polyline>
                <polyline id="Fill-276" fill="#2D2E2C" points="162 124.230632 63 131 69.9167204 103.57593 151.473539 98 162 124.230632"></polyline>
                <polyline id="Fill-277" fill="#78A695" points="81 93.5948015 89.8167231 93 91 110.408825 82.1841866 111 81 93.5948015"></polyline>
                <polyline id="Fill-278" fill="#FFFFFE" points="148 156.829965 130.753113 158 129 132.164788 146.246011 131 148 156.829965"></polyline>
                <polyline id="Fill-279" fill="#C3E5EB" points="145 143.58085 144.269007 133 138 133.41915 138.728265 144 145 143.58085"></polyline>
                <polyline id="Fill-280" fill="#C3E5EB" points="137 143.586156 136.271375 133 130 133.42101 130.729534 144 137 143.586156"></polyline>
                <polyline id="Fill-281" fill="#C3E5EB" points="131 145.415703 131.72944 156 138 155.582505 137.269651 145 131 145.415703"></polyline>
                <polyline id="Fill-282" fill="#C3E5EB" points="139 145.419082 139.728265 156 146 155.579127 145.271735 145 139 145.419082"></polyline>
                <polyline id="Fill-283" fill="#FFFFFE" points="122 158.831714 104.754463 160 103 134.166537 120.246237 133 122 158.831714"></polyline>
                <polyline id="Fill-284" fill="#C3E5EB" points="120 144.582641 119.27147 134 113 134.417359 113.72853 145 120 144.582641"></polyline>
                <polyline id="Fill-285" fill="#C3E5EB" points="112 145.58085 111.270731 135 105 135.417359 105.729087 146 112 145.58085"></polyline>
                <polyline id="Fill-286" fill="#C3E5EB" points="106 147.419082 106.72925 158 113 157.580918 112.26984 147 106 147.419082"></polyline>
                <polyline id="Fill-287" fill="#C3E5EB" points="114 147.419082 114.730179 158 121 157.579127 120.270003 147 114 147.419082"></polyline>
                <polyline id="Fill-288" fill="#FFFFFE" points="97 159.83681 79.75535 161 78 135.168437 95.246577 134 97 159.83681"></polyline>
                <polyline id="Fill-289" fill="#C3E5EB" points="95 146.584365 94.2708182 136 88 136.415635 88.7302734 147 95 146.584365"></polyline>
                <polyline id="Fill-290" fill="#C3E5EB" points="87 147.580918 86.2713755 137 80 137.4155 80.7286245 148 87 147.580918"></polyline>
                <polyline id="Fill-291" fill="#C3E5EB" points="81 149.420804 81.7286245 160 88 159.580986 87.2713755 149 81 149.420804"></polyline>
                <polyline id="Fill-292" fill="#C3E5EB" points="89 148.419082 89.7300915 159 96 158.582709 95.2715459 148 89 148.419082"></polyline>
                <polyline id="Fill-293" fill="#AE243C" points="254.454376 116 338 118.264965 336.547404 171 253 168.735035 254.454376 116"></polyline>
                <polyline id="Fill-294" fill="#2D2E2C" points="344 122 248 119.393958 257.163934 94 336.247128 96.1470828 344 122"></polyline>
                <polyline id="Fill-295" fill="#AE243C" points="269.461166 85 278 85.2303864 277.537018 102 269 101.769614 269.461166 85"></polyline>
                <polyline id="Fill-296" fill="#FFFFFE" points="327.288831 152 310 151.534983 310.711169 126 328 126.463236 327.288831 152"></polyline>
                <polyline id="Fill-297" fill="#C3E5EB" points="325.732571 139 326 129.159657 320.270857 129 320 138.84206 325.732571 139"></polyline>
                <polyline id="Fill-298" fill="#C3E5EB" points="318.732648 138 319 128.156277 313.267352 128 313 137.842006 318.732648 138"></polyline>
                <polyline id="Fill-299" fill="#C3E5EB" points="312.268912 140 312 149.843777 317.731088 150 318 140.154506 312.268912 140"></polyline>
                <polyline id="Fill-300" fill="#C3E5EB" points="320.269066 140 320 149.840398 325.730934 150 326 140.154453 320.269066 140"></polyline>
                <polyline id="Fill-301" fill="#FFFFFE" points="303.290569 152 286 151.535014 286.709431 126 304 126.468549 303.290569 152"></polyline>
                <polyline id="Fill-302" fill="#C3E5EB" points="301.732648 138 302 128.15794 296.269066 128 296 137.838627 301.732648 138"></polyline>
                <polyline id="Fill-303" fill="#C3E5EB" points="293.730934 138 294 128.15456 288.267352 128 288 137.840289 293.730934 138"></polyline>
                <polyline id="Fill-304" fill="#C3E5EB" points="288.269066 140 288 149.845467 293.730934 150 294 140.15625 288.269066 140"></polyline>
                <polyline id="Fill-305" fill="#C3E5EB" points="296.269066 140 296 149.838654 301.732648 150 302 140.156196 296.269066 140"></polyline>
                <polyline id="Fill-306" fill="#FFFFFE" points="279.290712 151 262 150.533233 262.709288 125 280 125.464986 279.290712 151"></polyline>
                <polyline id="Fill-307" fill="#C3E5EB" points="277.732648 137 278 127.159711 272.267352 127 272 136.843723 277.732648 137"></polyline>
                <polyline id="Fill-308" fill="#C3E5EB" points="269.731088 137 270 127.15456 264.268912 127 264 136.840289 269.731088 137"></polyline>
                <polyline id="Fill-309" fill="#C3E5EB" points="264.268836 139 264 148.843777 269.731164 149 270 139.156223 264.268836 139"></polyline>
                <polyline id="Fill-310" fill="#C3E5EB" points="271.268989 139 271 148.842087 276.732724 149 277 139.156196 271.268989 139"></polyline>
                <path d="M400.243689,101.611662 C402.114389,88.4926674 414.269511,79.3767979 427.389186,81.2420913 C440.50886,83.1144637 449.628742,95.2689562 447.756272,108.38972 C445.885573,121.506945 433.73399,130.624584 420.612546,128.757521 C407.492871,126.881609 398.37122,114.728886 400.243689,101.611662" id="Fill-311" fill="#BEC935"></path>
                <polyline id="Fill-312" fill="#664628" points="441 110.918635 422.338326 121.642913 425.813511 90 422.172592 110.996616 412 95.9000368 421.802743 113.123395 412.474523 166.888344 417.354088 167 422.081875 123.964646 441 110.918635"></polyline>
                <path d="M227.192345,111.012122 C225.528651,97.8649148 234.841798,85.857557 247.992061,84.1920317 C261.138784,82.5300463 273.145699,91.8399965 274.807623,104.990744 C276.471318,118.141491 267.15994,130.147078 254.011448,131.807294 C240.862955,133.472819 228.8525,124.157559 227.192345,111.012122" id="Fill-313" fill="#BEC935"></path>
                <polyline id="Fill-314" fill="#664628" points="270 109.15412 254.732049 124.556017 249.835377 93 251.791594 114.300533 238 102.43035 251.987741 116.459395 256.998249 171 261.753065 169.794309 255.091068 126.871369 270 109.15412"></polyline>
                <path d="M9.19212685,120.011631 C7.5293825,106.861465 16.8434056,94.8564074 29.9908552,93.1927256 C43.1374199,91.5272738 55.1459915,100.840353 56.8078509,113.990519 C58.4704183,127.137145 49.1599348,139.143973 36.0116003,140.807654 C22.8641506,142.471336 10.8522165,133.158258 9.19212685,120.011631" id="Fill-315" fill="#BEC935"></path>
                <polyline id="Fill-316" fill="#664628" points="51 118.152341 35.7311574 133.557795 30.8347672 102 32.7921674 123.300533 19 111.43035 32.9888356 125.459395 37.9988836 180 42.7525448 178.794309 36.0894683 135.871369 51 118.152341"></polyline>
            </g>
        </g>
    </g>
</svg>