<?xml version="1.0" encoding="UTF-8"?>
<svg width="1024px" height="192px" viewBox="0 0 1024 192" version="1.1" xmlns="http://www.w3.org/2000/svg" xmlns:xlink="http://www.w3.org/1999/xlink">
    <!-- Generator: Sketch 60.1 (88133) - https://sketch.com -->
    <title>push2talk</title>
    <desc>Created with Sketch.</desc>
    <g id="content" stroke="none" stroke-width="1" fill="none" fill-rule="evenodd">
        <g id="push2talk" transform="translate(0.000000, -2.000000)">
            <rect id="invisible" fill-opacity="0.01" fill="#FFFFFF" x="0" y="2" width="1024" height="192"></rect>
            <g id="chix" transform="translate(485.000000, 27.000000)" fill-rule="nonzero">
                <path d="M53.7277926,62 C54.6155201,66.8574923 56.4487913,72.3477132 55.1099161,77.9275559 C53.4997149,84.6361829 52.2769272,90.9455455 52.198625,96.4442806 C67.751156,101.014087 78.94062,113.745288 78.94062,128.736298 C78.94062,130.2043 79.0339452,147.053614 78.9865997,148.671285 C78.8491157,153.398826 77.5084196,158 69.1178011,158 L9.85902993,158 C1.49253947,158 0.15229853,153.390312 0.0134488408,148.666355 C-0.0338966271,147.048685 0.058973329,130.200715 0.058973329,128.736298 C0.058973329,113.778448 11.1997261,101.071445 26.6980829,96.4756481 C26.597929,90.9692953 25.7889589,84.6487299 23.8896772,77.9275559 C22.3231796,72.3844581 24.3840732,66.8574923 25.2718007,62 L53.7277926,62" id="Fill-149" fill="#F5A479"></path>
                <path d="M13,68 C8.92303803,66.9422504 5.09337355,60.5847488 4.13003348,52.8989851 C3.4691374,47.6285768 5.38547755,46.1925682 8.56070842,46 C8.98421615,54.0369714 10.5550291,61.523748 13,68" id="Fill-150" fill="#F49A6A"></path>
                <path d="M66,68 C70.076962,66.9422504 73.9066265,60.5847488 74.8699665,52.8989851 C75.5308626,47.6285768 73.6145225,46.1925682 70.4392916,46 C70.0157839,54.0369714 68.4449709,61.523748 66,68" id="Fill-151" fill="#F49A6A"></path>
                <path d="M76.9409769,128.35468 C76.9409769,117.219697 73.2227177,107.316739 63.9386086,101 C62.6670608,116.338576 52.2729493,128.300659 39.6366601,128.300659 C27.1311457,128.300659 16.8212007,116.58598 15.3754373,101.477103 C6.48410527,107.80973 3.0586188,117.496153 3.0586188,128.35468 C3.0586188,129.838194 2.96630715,146.905873 3.01336799,148.544639 C3.15138297,153.330198 2.22102627,158 10.5372205,158 L69.4397499,158 C77.779927,158 76.8500228,153.338823 76.9866803,148.549632 C77.0337411,146.910866 76.9409769,129.841826 76.9409769,128.35468" id="Fill-152" fill="#2A2A2A"></path>
                <path d="M72.0029091,108.149505 C71.052555,107.047111 70.0273301,105.995479 68.9327464,105 L63.8089187,105 C63.6072727,106.072746 63.3592345,107.123479 63.0666411,108.149505 L72.0029091,108.149505 Z M57.138067,119.617281 C56.1923062,120.76325 55.170756,121.816679 54.0835215,122.766337 L76,122.766337 L76,119.617281 L57.138067,119.617281 Z M25.1783349,122.766337 C24.0915598,121.816679 23.0704689,120.76325 22.1247081,119.617281 L4,119.617281 L4,122.766337 L25.1783349,122.766337 Z M16.194756,108.149505 C15.9021627,107.123928 15.6541244,106.072746 15.4524785,105 L11.0667943,105 C9.97266986,105.995479 8.94744498,107.047111 7.99709091,108.149505 L16.194756,108.149505 Z M4,152 L76,152 L76,148.850944 L4,148.850944 L4,152 Z M4,137.383168 L76,137.383168 L76,134.234112 L4,134.234112 L4,137.383168 Z" id="Fill-153" fill="#B04878"></path>
                <path d="M78.94062,128.473803 C78.94062,120.350426 75.7111128,112.88625 70.3141847,107.000452 C68.3816702,112.79492 67.3022845,119.251755 67.3022845,126.060346 C67.3022845,127.017952 67.2836195,143.309016 67.2690517,158 L69.1178011,158 C77.5084196,158 78.8491157,153.357553 78.9865997,148.587606 C79.0339452,146.955426 78.94062,129.954973 78.94062,128.473803 Z M8.68586387,107 C3.28848053,112.885798 0.058973329,120.350426 0.058973329,128.473803 C0.058973329,129.951356 -0.0338966271,146.950452 0.0134488408,148.582633 C0.15229853,153.348963 1.49253947,158 9.85902993,158 L11.7309969,158 C11.7168843,143.309016 11.6982193,127.017952 11.6982193,126.060346 C11.6982193,119.251755 10.6183784,112.79492 8.68586387,107 L8.68586387,107 Z" id="Fill-154" fill="#FFBE8E"></path>
                <path d="M63.9948215,25.2006445 C64.7629191,29.4338951 71,35.4286234 71,40.0444103 C71,67.0818029 56.8973433,89 39.5002285,89 C26.2936095,89 14.9859875,76.3695122 10.303836,58.4577601 C8.81835984,52.7735879 8,46.5579392 8,40.0444103 C8,32.854539 10.8823081,26.0268323 12.6734698,19.8768259 C21.8486042,20.1045369 62.2443265,15.5525815 63.9948215,25.2006445" id="Fill-155" fill="#FBBB91"></path>
                <path d="M21.3484484,96 C21.4431633,95.8482292 17.9033623,77.655543 29.5184053,64.9383168 C34.365182,59.631291 41.6015849,55.7032632 46.2426171,51.0510588 C52.4371557,44.8410641 55.5151648,38.4801991 58.6162861,31.1785351 C60.785213,43.0472857 64.414744,50.6952756 68.1131586,60.1564091 C72.068074,46.6006151 77.9236327,15.5722584 57.0587011,12.3193182 C51.5507326,1.33056829 32.9095628,5.64545407 28.8223185,6.83845401 C22.49817,8.68402357 17.4492744,13.5677123 13.9366642,19.2354753 C8.24198486,26.7379993 6.27698967,41.0008563 7.23003047,55.3254124 C8.74275047,78.0518586 12.3972065,78.4112447 21.3484484,96" id="Fill-156" fill="#2A2A2A"></path>
                <path d="M60,23 C56.7036823,29.5333066 53.7898201,35.4329465 50.243655,40.7336474 C43.9632192,50.1218367 35.0846334,53.0583519 27.6015049,62.2814721 C24.40135,66.22554 20.2553754,75.7165592 20.8411337,86 C18.1033502,75.0247124 22.6994015,65.741157 25.3462915,61.3226284 C31.3549249,51.2922033 39.7013224,46.7189789 46.7238358,38.2269431 C50.8825443,33.1986513 54.7356397,28.1960669 60,23" id="Fill-157" fill="#DA5994"></path>
                <path d="M31.107147,9 C30.1849891,5.42618825 25.8710441,5.24469925 23,3.49936196 C28.1357493,2.27621307 35.4843402,3.27548931 41,6.76888079 C36.7151491,8.07788376 35.3919979,7.69045365 31.107147,9" id="Fill-158" fill="#2A2A2A"></path>
                <path d="M37.289344,7.785382 C37.2060031,4.79502182 31.2982392,2.1737087 29,0 C34.0550588,0.581410964 42.614953,4.71905424 47,9 C42.7192318,8.73497674 41.5697017,8.05083689 37.289344,7.785382" id="Fill-159" fill="#2A2A2A"></path>
                <path d="M33.3096682,10.4901734 C32.1142237,11.6595968 30.9714767,13.1890192 29.7685633,14.3974233 C28.3453164,15.82733 28.2312076,15.7080947 26.1573335,15.3916625 C24.7042108,15.17016 23.2809638,14.7803522 21.8278411,14.5588496 C19.6498168,14.2268251 19.7718094,15.3503887 20.3942206,17.5892613 C21.0058434,19.7873187 21.5846858,21.9789557 22.0892538,24.17472 C22.6776399,26.7336936 23.0012937,26.3503061 24.5228816,24.5732412 C25.6739274,23.2290922 26.5623157,22.0683822 27.6901248,20.7003861 C29.4739554,18.5348891 29.399681,18.917818 32.1387052,19.3213837 C33.5046904,19.522708 34.8715054,19.7235736 36.2374905,19.9248979 C37.8723573,20.1661201 38.3893736,20.3087439 37.7067959,18.2441384 C36.9619772,15.9915079 36.1561621,13.4174007 35.4109285,11.1647702 C35.1146607,10.2686709 34.3810454,9.44181976 33.3096682,10.4901734" id="Fill-160" fill="#DA5994"></path>
                <path d="M66,38.3798627 C62.6444058,40.1245731 65.4018264,49.0006865 65.8179223,55 C61.4360723,49.8034149 58.7631267,34.7611688 60.5736293,28 C63.2739722,32.4252244 63.2996571,33.954163 66,38.3798627" id="Fill-161" fill="#2A2A2A"></path>
            </g>
        </g>
    </g>
</svg>